<svg width="61" height="61" viewBox="0 0 61 61" fill="none" xmlns="http://www.w3.org/2000/svg">
<path d="M21.8743 43.815C21.5086 43.815 21.1429 43.674 20.8629 43.3949L1.67143 24.0632C-0.557143 21.8187 -0.557143 18.167 1.67143 15.9225C3.90571 13.678 7.52857 13.6837 9.75143 15.9225L26.9257 33.2197C27.4829 33.7808 27.4829 34.693 26.9257 35.2542C26.3686 35.8153 25.4629 35.8153 24.9057 35.2542L7.73143 17.9569C6.62286 16.8404 4.81143 16.8376 3.69143 17.9569C3.15429 18.5008 2.85429 19.2231 2.85429 19.9914C2.85429 20.7626 3.15143 21.4849 3.69143 22.0287L22.8857 41.3576C23.4429 41.9187 23.4429 42.8309 22.8857 43.392C22.6057 43.674 22.24 43.815 21.8743 43.815V43.815Z" fill="black"/>
<path d="M31.9773 29.571C31.6116 29.571 31.2459 29.43 30.9659 29.1508L11.7745 9.81913C10.6573 8.69399 8.84878 8.69399 7.73164 9.81913C7.19449 10.363 6.89449 11.0853 6.89449 11.8536C6.89449 12.6219 7.19164 13.3442 7.73164 13.8881L9.75164 15.9225C10.3088 16.4836 10.3088 17.3958 9.75164 17.957C9.19449 18.5181 8.28878 18.5181 7.73164 17.957L5.71164 15.9225C4.63164 14.8348 4.03735 13.3902 4.03735 11.8536C4.03735 10.317 4.63164 8.87241 5.71164 7.78467C7.86878 5.61209 11.6316 5.60633 13.7945 7.78467L32.9859 27.1164C33.5431 27.6775 33.5431 28.5897 32.9859 29.1508C32.7059 29.4328 32.3431 29.571 31.9773 29.571Z" fill="black"/>
<path d="M38.04 23.4676C37.6743 23.4676 37.3086 23.3266 37.0286 23.0474L21.8743 7.78466C20.7572 6.65952 18.9514 6.65952 17.8343 7.78466C16.72 8.90693 16.72 10.7313 17.8343 11.8536C18.3914 12.4147 18.3914 13.3269 17.8343 13.888C17.2772 14.4492 16.3714 14.4492 15.8143 13.888C13.5886 11.6464 13.5886 7.99185 15.8143 5.75021C18.04 3.50856 21.6686 3.50856 23.8943 5.75021L39.0486 21.013C39.6057 21.5741 39.6057 22.4863 39.0486 23.0474C38.7714 23.3266 38.4057 23.4676 38.04 23.4676V23.4676Z" fill="black"/>
<path d="M36.4799 61C35.5171 61 34.5428 60.8907 33.5771 60.6691L9.51994 55.1153C8.47994 54.8966 7.51137 54.3614 6.7228 53.5672C5.6428 52.4794 5.04565 51.032 5.04565 49.4983C5.04565 47.9616 5.6428 46.5171 6.7228 45.4293C7.46565 44.6812 8.36851 44.1661 9.3428 43.9272C9.37137 43.9157 9.39994 43.91 9.42851 43.9013L21.5428 40.9748C22.3114 40.782 23.0828 41.2683 23.2657 42.0395C23.4485 42.8136 22.9742 43.5877 22.2085 43.7747L10.1771 46.6811C10.1399 46.6926 10.1028 46.7041 10.0628 46.7127C9.5828 46.8192 9.12565 47.0811 8.7428 47.4667C8.2028 48.0105 7.9028 48.7328 7.9028 49.5011C7.9028 50.2695 8.19994 50.9917 8.7428 51.5356C9.1228 51.9183 9.59423 52.1888 10.0685 52.2953C10.0885 52.2982 10.1057 52.301 10.1228 52.3068L34.2171 57.8692C37.5971 58.649 41.0742 57.6418 43.5228 55.1729L55.2142 43.3949C57.1028 41.4928 58.1428 38.9634 58.1428 36.2728C58.1428 33.5823 57.1028 31.0557 55.2142 29.1508L29.9599 3.7157C28.8428 2.59056 27.0371 2.59056 25.9199 3.7157C24.8057 4.83796 24.8057 6.66235 25.9199 7.78462C26.4771 8.34575 26.4771 9.25795 25.9199 9.81908C25.3628 10.3802 24.4571 10.3802 23.8999 9.81908C21.6742 7.57743 21.6742 3.92288 23.8999 1.68124C26.1257 -0.560412 29.7542 -0.560412 31.9799 1.68124L57.2342 27.1163C59.6657 29.5623 60.9999 32.8111 60.9999 36.2728C60.9999 39.7346 59.6628 42.9834 57.2342 45.4293L45.5428 57.2073C43.0914 59.6677 39.8457 61 36.4799 61V61Z" fill="black"/>
</svg>
