<svg width="15" height="15" viewBox="0 0 15 15" fill="none" xmlns="http://www.w3.org/2000/svg">
<path d="M2.25241 2.81643C0.750584 4.31823 0.750584 6.7618 2.25238 8.2636L3.05007 7.46592C1.98816 6.40402 1.98814 4.67613 3.0501 3.61417C4.11203 2.55224 5.83992 2.55224 6.90185 3.61414L7.69953 2.81646C6.19776 1.31463 3.75418 1.31466 2.25241 2.81643Z" fill="#6E9C9F"/>
<path d="M3.84127 4.39119C3.2091 5.02336 3.20907 6.05201 3.84124 6.68421L4.63895 5.88653C4.54578 5.79335 4.49446 5.66947 4.49446 5.53772C4.49446 5.40599 4.54581 5.2821 4.63898 5.18893C4.73215 5.09576 4.85603 5.04444 4.98776 5.04444C5.11952 5.04444 5.24343 5.09576 5.33658 5.18893L6.13426 4.39122C5.50209 3.75902 4.47344 3.75902 3.84127 4.39119Z" fill="#6E9C9F"/>
<path d="M13.7483 2.43513L11.8551 0.548477L7.92337 4.47367L9.44758 6.04781C9.19214 6.50125 8.6379 7.3699 7.69334 8.31447C6.74865 9.25918 5.87366 9.81971 5.41587 10.0792L3.87261 8.55562L0.0022583 12.4029L1.8851 14.2983C2.60485 15.0181 3.69998 15.2046 4.6102 14.7625C5.99921 14.0879 8.09546 12.8431 10.1943 10.7443C12.2931 8.64552 13.5379 6.54924 14.2125 5.16023C14.3723 4.83109 14.45 4.47787 14.45 4.12692C14.45 3.5072 14.2078 2.89464 13.7483 2.43513ZM13.1977 4.66732C12.5609 5.97846 11.3845 7.95865 9.39661 9.94658C7.40868 11.9345 5.42849 13.1109 4.11735 13.7477C3.63935 13.9799 3.06287 13.8806 2.6842 13.5019L1.59746 12.4079L3.87543 10.1436L5.19015 11.4415L5.5419 11.2849C5.59905 11.2595 6.95947 10.6438 8.49116 9.11215C10.0239 7.57947 10.6267 6.23054 10.6515 6.17386L10.8041 5.82683L9.50677 4.48705L11.8559 2.14178L12.9512 3.23327C13.3307 3.6133 13.4298 4.18952 13.1977 4.66732Z" fill="#6E9C9F"/>
</svg>
